<?xml version="1.0" encoding="UTF-8"?>
<svg width="100" height="100" viewBox="0 0 100 100" xmlns="http://www.w3.org/2000/svg">
  <path d="M50 80 C30 80 15 60 15 40 C15 20 30 10 50 10 C70 10 85 20 85 40 C85 60 70 80 50 80" fill="#FF69B4"/>
  <path d="M30 40 C30 35 35 30 40 30 C45 30 50 35 50 40 C50 45 45 50 40 50 C35 50 30 45 30 40" fill="white"/>
  <path d="M50 40 C50 35 55 30 60 30 C65 30 70 35 70 40 C70 45 65 50 60 50 C55 50 50 45 50 40" fill="white"/>
  <path d="M40 60 C40 50 60 50 60 60 L60 90 L40 90 Z" fill="#FFD700"/>
</svg> 